<svg width="34" height="34" viewBox="0 0 34 34" fill="none" xmlns="http://www.w3.org/2000/svg">
<path opacity="0.5" d="M28.6667 0.333313H5.33337C4.0077 0.334637 2.7367 0.861846 1.7993 1.79924C0.861907 2.73664 0.334698 4.00764 0.333374 5.33331V22C0.334698 23.3257 0.861907 24.5967 1.7993 25.5341C2.7367 26.4714 4.0077 26.9987 5.33337 27H24.6434L30.8217 33.1783C31.0548 33.4113 31.3517 33.57 31.675 33.6343C31.9982 33.6986 32.3333 33.6656 32.6378 33.5394C32.9423 33.4133 33.2026 33.1998 33.3857 32.9257C33.5689 32.6517 33.6666 32.3296 33.6667 32V5.33331C33.6654 4.00764 33.1382 2.73664 32.2008 1.79924C31.2634 0.861846 29.9924 0.334637 28.6667 0.333313V0.333313ZM10.3334 15.3333C10.0037 15.3333 9.68151 15.2356 9.40742 15.0524C9.13334 14.8693 8.91972 14.609 8.79358 14.3045C8.66743 13.9999 8.63442 13.6648 8.69873 13.3415C8.76304 13.0182 8.92178 12.7212 9.15486 12.4881C9.38795 12.255 9.68492 12.0963 10.0082 12.032C10.3315 11.9677 10.6666 12.0007 10.9712 12.1268C11.2757 12.253 11.536 12.4666 11.7192 12.7407C11.9023 13.0148 12 13.337 12 13.6666C12 14.1087 11.8244 14.5326 11.5119 14.8452C11.1993 15.1577 10.7754 15.3333 10.3334 15.3333V15.3333ZM17 15.3333C16.6704 15.3333 16.3482 15.2356 16.0741 15.0524C15.8 14.8693 15.5864 14.609 15.4602 14.3045C15.3341 13.9999 15.3011 13.6648 15.3654 13.3415C15.4297 13.0182 15.5884 12.7212 15.8215 12.4881C16.0546 12.255 16.3516 12.0963 16.6749 12.032C16.9982 11.9677 17.3333 12.0007 17.6378 12.1268C17.9424 12.253 18.2027 12.4666 18.3858 12.7407C18.569 13.0148 18.6667 13.337 18.6667 13.6666C18.6667 14.1087 18.4911 14.5326 18.1786 14.8452C17.866 15.1577 17.4421 15.3333 17 15.3333ZM23.6667 15.3333C23.3371 15.3333 23.0148 15.2356 22.7408 15.0524C22.4667 14.8693 22.2531 14.609 22.1269 14.3045C22.0008 13.9999 21.9678 13.6648 22.0321 13.3415C22.0964 13.0182 22.2551 12.7212 22.4882 12.4881C22.7213 12.255 23.0183 12.0963 23.3416 12.032C23.6649 11.9677 24 12.0007 24.3045 12.1268C24.6091 12.253 24.8694 12.4666 25.0525 12.7407C25.2356 13.0148 25.3334 13.337 25.3334 13.6666C25.3334 14.1087 25.1578 14.5326 24.8452 14.8452C24.5327 15.1577 24.1087 15.3333 23.6667 15.3333Z" fill="white"/>
</svg>
