<svg width="34" height="34" viewBox="0 0 34 34" fill="none" xmlns="http://www.w3.org/2000/svg">
<path opacity="0.99" d="M14.1884 23.8234C13.9692 23.8238 13.7521 23.7809 13.5496 23.6971C13.3471 23.6133 13.1632 23.4902 13.0084 23.335L8.32174 18.6467C8.01814 18.3324 7.85015 17.9113 7.85394 17.4744C7.85774 17.0374 8.03302 16.6193 8.34204 16.3103C8.65105 16.0013 9.06907 15.826 9.50607 15.8222C9.94306 15.8184 10.3641 15.9864 10.6784 16.29L14.1867 19.8L23.3217 10.6667C23.6373 10.3704 24.0557 10.2084 24.4885 10.2152C24.9213 10.2219 25.3346 10.3967 25.6407 10.7027C25.9469 11.0087 26.1221 11.4218 26.1291 11.8546C26.1361 12.2874 25.9745 12.7059 25.6784 13.0217L15.3651 23.335C15.2105 23.49 15.0268 23.613 14.8246 23.6968C14.6224 23.7806 14.4056 23.8236 14.1867 23.8234H14.1884Z" fill="#C84B31"/>
<path opacity="0.5" d="M17 0.333313C13.7037 0.333313 10.4814 1.3108 7.74054 3.14215C4.99972 4.97351 2.86352 7.57649 1.60206 10.6219C0.340595 13.6674 0.0105399 17.0185 0.653627 20.2515C1.29671 23.4845 2.88406 26.4542 5.21494 28.7851C7.54581 31.116 10.5155 32.7033 13.7485 33.3464C16.9816 33.9895 20.3327 33.6594 23.3781 32.398C26.4235 31.1365 29.0265 29.0003 30.8579 26.2595C32.6892 23.5187 33.6667 20.2963 33.6667 17C33.6619 12.5812 31.9044 8.34478 28.7798 5.22023C25.6552 2.09567 21.4188 0.338166 17 0.333313V0.333313ZM25.6784 13.0216L15.365 23.335C15.0525 23.6474 14.6287 23.823 14.1867 23.823C13.7448 23.823 13.3209 23.6474 13.0084 23.335L8.32171 18.6466C8.01812 18.3323 7.85013 17.9113 7.85392 17.4743C7.85772 17.0373 8.033 16.6193 8.34202 16.3103C8.65103 16.0013 9.06905 15.826 9.50605 15.8222C9.94304 15.8184 10.364 15.9864 10.6784 16.29L14.1867 19.8L23.3217 10.6666C23.6373 10.3703 24.0557 10.2084 24.4885 10.2151C24.9213 10.2218 25.3345 10.3967 25.6407 10.7027C25.9469 11.0086 26.122 11.4217 26.1291 11.8545C26.1361 12.2873 25.9745 12.7059 25.6784 13.0216V13.0216Z" fill="#C84B31"/>
</svg>
