<svg width="34" height="34" viewBox="0 0 34 34" fill="none" xmlns="http://www.w3.org/2000/svg">
<path opacity="0.5" d="M28.6667 0.333252H5.33337C4.0077 0.334576 2.7367 0.861785 1.7993 1.79918C0.861907 2.73658 0.334698 4.00758 0.333374 5.33325V21.9999C0.334698 23.3256 0.861907 24.5966 1.7993 25.534C2.7367 26.4714 4.0077 26.9986 5.33337 26.9999H24.6434L30.8217 33.1783C31.0548 33.4113 31.3517 33.5699 31.675 33.6342C31.9982 33.6985 32.3333 33.6655 32.6378 33.5394C32.9423 33.4133 33.2026 33.1997 33.3857 32.9257C33.5689 32.6517 33.6666 32.3295 33.6667 31.9999V5.33325C33.6654 4.00758 33.1382 2.73658 32.2008 1.79918C31.2634 0.861785 29.9924 0.334576 28.6667 0.333252ZM10.3334 15.3333C10.0037 15.3333 9.68151 15.2355 9.40742 15.0524C9.13334 14.8692 8.91972 14.6089 8.79358 14.3044C8.66743 13.9998 8.63442 13.6647 8.69873 13.3414C8.76304 13.0181 8.92178 12.7212 9.15486 12.4881C9.38795 12.255 9.68492 12.0963 10.0082 12.0319C10.3315 11.9676 10.6666 12.0006 10.9712 12.1268C11.2757 12.2529 11.536 12.4666 11.7192 12.7406C11.9023 13.0147 12 13.3369 12 13.6666C12 14.1086 11.8244 14.5325 11.5119 14.8451C11.1993 15.1577 10.7754 15.3333 10.3334 15.3333ZM17 15.3333C16.6704 15.3333 16.3482 15.2355 16.0741 15.0524C15.8 14.8692 15.5864 14.6089 15.4602 14.3044C15.3341 13.9998 15.3011 13.6647 15.3654 13.3414C15.4297 13.0181 15.5884 12.7212 15.8215 12.4881C16.0546 12.255 16.3516 12.0963 16.6749 12.0319C16.9982 11.9676 17.3333 12.0006 17.6378 12.1268C17.9424 12.2529 18.2027 12.4666 18.3858 12.7406C18.569 13.0147 18.6667 13.3369 18.6667 13.6666C18.6667 14.1086 18.4911 14.5325 18.1786 14.8451C17.866 15.1577 17.4421 15.3333 17 15.3333ZM23.6667 15.3333C23.3371 15.3333 23.0148 15.2355 22.7408 15.0524C22.4667 14.8692 22.2531 14.6089 22.1269 14.3044C22.0008 13.9998 21.9678 13.6647 22.0321 13.3414C22.0964 13.0181 22.2551 12.7212 22.4882 12.4881C22.7213 12.255 23.0183 12.0963 23.3416 12.0319C23.6649 11.9676 24 12.0006 24.3045 12.1268C24.6091 12.2529 24.8694 12.4666 25.0525 12.7406C25.2356 13.0147 25.3334 13.3369 25.3334 13.6666C25.3334 14.1086 25.1578 14.5325 24.8452 14.8451C24.5327 15.1577 24.1087 15.3333 23.6667 15.3333Z" fill="white"/>
<path d="M10.3333 15.3333C11.2538 15.3333 12 14.5871 12 13.6667C12 12.7462 11.2538 12 10.3333 12C9.41282 12 8.66663 12.7462 8.66663 13.6667C8.66663 14.5871 9.41282 15.3333 10.3333 15.3333Z" fill="white"/>
<path d="M17 15.3333C17.9205 15.3333 18.6667 14.5871 18.6667 13.6667C18.6667 12.7462 17.9205 12 17 12C16.0796 12 15.3334 12.7462 15.3334 13.6667C15.3334 14.5871 16.0796 15.3333 17 15.3333Z" fill="white"/>
<path d="M23.6667 15.3333C24.5871 15.3333 25.3333 14.5871 25.3333 13.6667C25.3333 12.7462 24.5871 12 23.6667 12C22.7462 12 22 12.7462 22 13.6667C22 14.5871 22.7462 15.3333 23.6667 15.3333Z" fill="white"/>
</svg>
