<svg width="21" height="20" viewBox="0 0 21 20" fill="none" xmlns="http://www.w3.org/2000/svg">
<path d="M14 9H12V7C12 6.73478 11.8946 6.48043 11.7071 6.29289C11.5196 6.10536 11.2652 6 11 6C10.7348 6 10.4804 6.10536 10.2929 6.29289C10.1054 6.48043 10 6.73478 10 7V9H8C7.73478 9 7.48043 9.10536 7.29289 9.29289C7.10536 9.48043 7 9.73478 7 10C7 10.2652 7.10536 10.5196 7.29289 10.7071C7.48043 10.8946 7.73478 11 8 11H10V13C10 13.2652 10.1054 13.5196 10.2929 13.7071C10.4804 13.8946 10.7348 14 11 14C11.2652 14 11.5196 13.8946 11.7071 13.7071C11.8946 13.5196 12 13.2652 12 13V11H14C14.2652 11 14.5196 10.8946 14.7071 10.7071C14.8946 10.5196 15 10.2652 15 10C15 9.73478 14.8946 9.48043 14.7071 9.29289C14.5196 9.10536 14.2652 9 14 9Z" fill="#346751"/>
<path opacity="0.5" d="M11 1.09881e-07C9.10715 -0.000280442 7.25308 0.536679 5.65331 1.54846C4.05354 2.56025 2.77379 4.0053 1.96282 5.71564C1.15185 7.42599 0.842956 9.33138 1.07206 11.2103C1.30116 13.0893 2.05884 14.8646 3.25702 16.33L1.29302 18.293C1.15321 18.4329 1.05801 18.611 1.01944 18.805C0.980872 18.9989 1.00068 19.2 1.07635 19.3827C1.15202 19.5654 1.28015 19.7215 1.44456 19.8314C1.60897 19.9413 1.80227 20 2.00002 20H11C13.6522 20 16.1957 18.9464 18.0711 17.0711C19.9465 15.1957 21 12.6522 21 10C21 7.34784 19.9465 4.8043 18.0711 2.92893C16.1957 1.05357 13.6522 1.09881e-07 11 1.09881e-07ZM14 11H12V13C12 13.2652 11.8947 13.5196 11.7071 13.7071C11.5196 13.8946 11.2652 14 11 14C10.7348 14 10.4805 13.8946 10.2929 13.7071C10.1054 13.5196 10 13.2652 10 13V11H8.00002C7.73481 11 7.48045 10.8946 7.29292 10.7071C7.10538 10.5196 7.00002 10.2652 7.00002 10C7.00002 9.73478 7.10538 9.48043 7.29292 9.29289C7.48045 9.10536 7.73481 9 8.00002 9H10V7C10 6.73478 10.1054 6.48043 10.2929 6.29289C10.4805 6.10536 10.7348 6 11 6C11.2652 6 11.5196 6.10536 11.7071 6.29289C11.8947 6.48043 12 6.73478 12 7V9H14C14.2652 9 14.5196 9.10536 14.7071 9.29289C14.8947 9.48043 15 9.73478 15 10C15 10.2652 14.8947 10.5196 14.7071 10.7071C14.5196 10.8946 14.2652 11 14 11Z" fill="#346751"/>
</svg>
