<svg width="20" height="12" viewBox="0 0 20 12" fill="none" xmlns="http://www.w3.org/2000/svg">
<path d="M12.8594 0.89769H17.5352V2.03206H12.8594V0.89769ZM8.17422 5.38596C9.20781 4.89143 9.74922 4.13909 9.74922 2.97659C9.74922 0.677379 8.03828 0.119568 6.0625 0.119568H0.625V11.6602H6.21484C8.31016 11.6602 10.2766 10.6524 10.2766 8.30861C10.2766 6.86018 9.59219 5.78908 8.17422 5.38596ZM3.16094 2.08831H5.53984C6.45625 2.08831 7.27891 2.34378 7.27891 3.40784C7.27891 4.38753 6.63906 4.78127 5.73203 4.78127H3.16094V2.08831ZM5.86797 9.70079H3.15859V6.52268H5.92188C7.0375 6.52268 7.74297 6.98908 7.74297 8.17033C7.74297 9.33282 6.90156 9.70079 5.86797 9.70079ZM19.3633 7.60314C19.3633 5.13049 17.9172 3.07034 15.3016 3.07034C12.7586 3.07034 11.0289 4.98518 11.0289 7.49533C11.0289 10.0969 12.6672 11.8828 15.3016 11.8828C17.2961 11.8828 18.5875 10.9852 19.2086 9.07033H17.1859C16.9656 9.78517 16.0703 10.1602 15.3742 10.1602C14.0289 10.1602 13.3258 9.37267 13.3258 8.03439H19.3469C19.3539 7.89611 19.3633 7.7508 19.3633 7.60314ZM13.3258 6.58596C13.3984 5.48674 14.132 4.80002 15.2289 4.80002C16.382 4.80002 16.9586 5.47737 17.0594 6.58596H13.3258Z" fill="#EB5757"/>
</svg>
